# xmcd
#
# Track frame offsets:
#	150
#	16386
#	41895
#	64243
#	79586
#
# Disc length: 1224 seconds
#
# Revision: 0
# Processed by: cddbd v1.5.2PL0 Copyright (c) Steve Scherf et al.
# Submitted via: audiograbber 1.83.01
#
DISCID=3a04c605
DTITLE=derica - This Is Alt. Blues - EP
DYEAR=2008
DGENRE=Blues
TTITLE0=On The Death Of John Fahey
TTITLE1=In Motion Like Water
TTITLE2=Shakin'
TTITLE3=Affection Blues
TTITLE4=Wah-Wah
EXTD=released on derica's home label handsomeproductions.com on 2/1/08. all ins
EXTD=truments and voices =derica. recorded at ELEET studio.
EXTT0=
EXTT1=
EXTT2=
EXTT3=
EXTT4=
PLAYORDER=
